<svg xmlns="http://www.w3.org/2000/svg" width="360" height="292" viewBox="0 0 360 292" version="1.1"><path d="M 163.750 223.662 C 164.438 223.940, 165.563 223.940, 166.250 223.662 C 166.938 223.385, 166.375 223.158, 165 223.158 C 163.625 223.158, 163.063 223.385, 163.750 223.662 M 175.776 223.733 C 178.128 223.945, 181.728 223.942, 183.776 223.727 C 185.824 223.512, 183.900 223.339, 179.500 223.343 C 175.100 223.346, 173.424 223.522, 175.776 223.733" stroke="none" fill="#24bcd4" fill-rule="evenodd"/><path d="M 151.500 5.977 C 121.296 11.059, 96.498 33.925, 89.025 63.585 C 86.690 72.854, 86.282 91.352, 88.286 97.103 C 93.244 111.332, 109.809 115.672, 120.845 105.633 C 125.373 101.514, 126.376 98.149, 126.998 84.987 C 127.528 73.791, 127.913 71.782, 130.663 65.906 C 135.267 56.068, 140.855 51.002, 151.412 47.095 C 156.684 45.144, 159.226 44.911, 174.870 44.949 C 197.245 45.003, 203.275 46.583, 212.024 54.683 C 220.711 62.725, 223.835 70.388, 224.122 84.360 C 224.281 92.109, 223.986 92.491, 217.085 93.478 C 209.935 94.501, 198.631 97.242, 197.261 98.284 C 196.580 98.802, 196.219 99.545, 196.459 99.933 C 196.699 100.322, 197.132 101.959, 197.422 103.570 C 199.693 116.217, 202.477 127.728, 203.540 128.872 C 204.592 130.004, 205.749 130.031, 210.158 129.025 C 224.383 125.782, 231.802 124.155, 234.978 123.584 L 238.457 122.959 233.799 125.912 C 227.132 130.141, 225.454 133.899, 224.389 146.994 C 223.175 161.923, 214.411 175.447, 203 180.003 C 201.625 180.552, 199.773 181.416, 198.885 181.924 C 197.997 182.432, 187.813 182.898, 176.253 182.959 L 155.236 183.070 148.676 179.937 C 137.032 174.374, 128.176 162.515, 127.723 151.877 L 127.500 146.635 131.776 145.373 C 134.128 144.680, 137.285 143.918, 138.792 143.680 C 146.048 142.537, 153.130 140.549, 154.096 139.384 C 154.868 138.454, 154.745 136.607, 153.657 132.796 C 152.826 129.883, 151.921 126.150, 151.647 124.500 C 148.975 108.418, 148.074 106.989, 141.756 108.811 C 139.415 109.487, 135.925 110.266, 134 110.543 C 132.075 110.820, 129.150 111.459, 127.500 111.963 C 125.850 112.467, 120 113.814, 114.500 114.956 C 109 116.098, 101.575 117.700, 98 118.517 C 91.523 119.997, 83.659 121.701, 79.102 122.613 C 71.798 124.074, 31.075 133.025, 29.896 133.428 C 29.128 133.691, 26.977 134.122, 25.116 134.387 C 19.478 135.188, 19.385 135.735, 22.427 150.192 C 23.958 157.471, 25.591 164.425, 26.056 165.647 C 27.060 168.287, 28.006 168.233, 43.065 164.679 C 48.804 163.324, 55.300 161.870, 57.500 161.447 C 59.700 161.025, 61.950 160.579, 62.500 160.458 C 63.050 160.337, 68.063 159.289, 73.640 158.130 C 79.217 156.970, 84.443 155.767, 85.254 155.456 C 86.739 154.886, 87.461 156.859, 88.670 164.778 C 89.740 171.785, 97.822 189, 100.042 189 C 100.569 189, 101 189.690, 101 190.534 C 101 191.377, 102.350 193.387, 104 195 C 105.650 196.613, 107 198.285, 107 198.716 C 107.001 199.750, 115.327 206.831, 121 210.623 C 125.742 213.792, 135.949 218.801, 138.810 219.363 C 139.739 219.545, 141.625 220.157, 143 220.723 C 144.375 221.289, 147.975 222.093, 151 222.511 C 157.660 223.431, 192.002 223.439, 199.280 222.522 C 222.486 219.600, 246.227 202.417, 255.961 181.500 C 260.305 172.165, 261.659 168.620, 262.454 164.500 C 262.773 162.850, 263.262 160.375, 263.541 159 C 263.821 157.625, 264.124 152.367, 264.215 147.315 C 264.360 139.345, 264.059 137.503, 261.941 133.385 C 258.760 127.200, 252.412 123.025, 246.054 122.937 C 242.156 122.882, 241.841 122.737, 243.867 121.926 C 245.887 121.117, 253.258 119.366, 263 117.380 C 269.632 116.028, 293.179 110.832, 298.500 109.546 C 306.086 107.712, 318.727 104.934, 322.009 104.380 C 329.222 103.161, 330.498 102.422, 330.571 99.423 C 330.610 97.815, 330.262 95.150, 329.797 93.500 C 329.332 91.850, 328.699 88.925, 328.390 87 C 327.526 81.619, 325.286 72.272, 324.590 71.146 C 324.248 70.592, 322.737 70.345, 321.234 70.598 C 318.563 71.048, 289.627 77.232, 273.311 80.841 L 265.122 82.652 264.454 76.076 C 262.817 59.976, 258.095 47.674, 248.929 35.635 C 239.033 22.636, 225.502 13.388, 208.500 8.003 C 202.308 6.042, 198.904 5.748, 179 5.461 C 166.625 5.282, 154.250 5.514, 151.500 5.977 M 165.646 101.003 C 160.705 103.470, 158.883 105.002, 159.570 106.113 C 159.871 106.601, 159.619 107, 159.008 107 C 157.334 107, 155 113.405, 155 118 C 155 133.980, 173.259 142.584, 185.640 132.439 C 188.118 130.408, 190.583 127.597, 191.117 126.193 C 192.893 121.522, 193.345 115.120, 192.012 113.514 C 191.321 112.681, 191.047 112, 191.403 112 C 192.616 112, 189.189 106.510, 186.339 103.886 C 180.834 98.818, 172.383 97.640, 165.646 101.003" stroke="none" fill="#24b4d4" fill-rule="evenodd"/></svg>